<svg width="54" height="66" viewBox="0 0 54 66" fill="none" xmlns="http://www.w3.org/2000/svg">
<g filter="url(#filter0_d_2_5)">
<rect x="2" width="50" height="60" rx="5" fill="#11823B"/>
</g>
<path fill-rule="evenodd" clip-rule="evenodd" d="M27 15.8749C26.2613 15.8749 25.5299 16.0204 24.8474 16.303C24.1649 16.5857 23.5449 17.0001 23.0225 17.5224C22.5002 18.0447 22.0859 18.6648 21.8032 19.3473C21.5205 20.0297 21.375 20.7612 21.375 21.4999C21.375 22.2385 21.5205 22.97 21.8032 23.6525C22.0859 24.3349 22.5002 24.955 23.0225 25.4773C23.5449 25.9997 24.1649 26.414 24.8474 26.6967C25.5299 26.9794 26.2613 27.1249 27 27.1249C28.4918 27.1249 29.9226 26.5322 30.9775 25.4773C32.0324 24.4224 32.625 22.9917 32.625 21.4999C32.625 20.008 32.0324 18.5773 30.9775 17.5224C29.9226 16.4675 28.4918 15.8749 27 15.8749V15.8749ZM19.5 21.4999C19.5001 20.0565 19.9167 18.6439 20.6998 17.4315C21.4829 16.219 22.5992 15.2583 23.9147 14.6646C25.2302 14.0708 26.6892 13.8693 28.1164 14.0841C29.5437 14.299 30.8786 14.9211 31.961 15.8758C33.0435 16.8305 33.8275 18.0773 34.2189 19.4665C34.6104 20.8558 34.5926 22.3284 34.1678 23.7078C33.7431 25.0872 32.9293 26.3148 31.8242 27.2432C30.719 28.1715 29.3695 28.7613 27.9375 28.9417V39.3124C27.9375 39.561 27.8387 39.7995 27.6629 39.9753C27.4871 40.1511 27.2486 40.2499 27 40.2499C26.7514 40.2499 26.5129 40.1511 26.3371 39.9753C26.1613 39.7995 26.0625 39.561 26.0625 39.3124V28.9436C24.2493 28.7152 22.5819 27.8326 21.3735 26.4616C20.1651 25.0906 19.4989 23.3255 19.5 21.498V21.4999ZM24.1744 37.5761C24.215 37.8213 24.1567 38.0725 24.0122 38.2747C23.8677 38.4768 23.6489 38.6134 23.4037 38.6542C22.0687 38.8755 21.0038 39.2074 20.3006 39.5786C20.0423 39.7028 19.8076 39.8709 19.6069 40.0755C19.5615 40.1249 19.5253 40.1821 19.5 40.2442V40.2499L19.5037 40.2649C19.5111 40.2867 19.5212 40.3074 19.5338 40.3267C19.6078 40.4352 19.6997 40.5303 19.8056 40.608C20.115 40.8517 20.6212 41.1142 21.33 41.3486C22.7381 41.8174 24.7425 42.1249 27 42.1249C29.2575 42.1249 31.2619 41.8192 32.67 41.3486C33.3788 41.1124 33.885 40.8517 34.1944 40.608C34.3009 40.5305 34.3935 40.4353 34.4681 40.3267C34.48 40.3073 34.4894 40.2866 34.4963 40.2649L34.5 40.2499V40.2424C34.4747 40.1802 34.4385 40.1231 34.3931 40.0736C34.1923 39.8697 33.9575 39.7022 33.6994 39.5786C32.9944 39.2074 31.9313 38.8755 30.5963 38.6542C30.4719 38.6374 30.3522 38.5957 30.2442 38.5318C30.1363 38.4678 30.0422 38.3828 29.9677 38.2818C29.8932 38.1808 29.8398 38.0659 29.8105 37.9439C29.7812 37.8219 29.7767 37.6952 29.7973 37.5714C29.8179 37.4476 29.8632 37.3292 29.9304 37.2232C29.9976 37.1172 30.0853 37.0258 30.1885 36.9544C30.2917 36.883 30.4082 36.833 30.531 36.8074C30.6539 36.7818 30.7806 36.7812 30.9037 36.8055C32.3475 37.0436 33.6262 37.4205 34.5731 37.9192C35.4375 38.3749 36.375 39.1249 36.375 40.2499C36.375 41.0486 35.8875 41.6599 35.355 42.0817C34.8113 42.5092 34.08 42.8561 33.2625 43.128C31.6163 43.6774 29.4019 43.9999 27 43.9999C24.5981 43.9999 22.3837 43.6774 20.7375 43.128C19.92 42.8561 19.1887 42.5092 18.645 42.0817C18.1125 41.6599 17.625 41.0486 17.625 40.2499C17.625 39.1267 18.5625 38.3749 19.4269 37.9192C20.3737 37.4205 21.6525 37.0436 23.0963 36.8055C23.3414 36.7648 23.5927 36.8232 23.7948 36.9677C23.997 37.1122 24.1335 37.331 24.1744 37.5761Z" fill="white"/>
<defs>
<filter id="filter0_d_2_5" x="0" y="0" width="54" height="66" filterUnits="userSpaceOnUse" color-interpolation-filters="sRGB">
<feFlood flood-opacity="0" result="BackgroundImageFix"/>
<feColorMatrix in="SourceAlpha" type="matrix" values="0 0 0 0 0 0 0 0 0 0 0 0 0 0 0 0 0 0 127 0" result="hardAlpha"/>
<feOffset dy="4"/>
<feGaussianBlur stdDeviation="1"/>
<feComposite in2="hardAlpha" operator="out"/>
<feColorMatrix type="matrix" values="0 0 0 0 0.0666667 0 0 0 0 0.509804 0 0 0 0 0.231373 0 0 0 0.5 0"/>
<feBlend mode="normal" in2="BackgroundImageFix" result="effect1_dropShadow_2_5"/>
<feBlend mode="normal" in="SourceGraphic" in2="effect1_dropShadow_2_5" result="shape"/>
</filter>
</defs>
</svg>
